%FSLAX34Y34*%
%MOMM*%
%LNSILK_TOP*%
G71*
G01*
%ADD10C,0.381*%
%ADD11C,0.200*%
%ADD12C,0.300*%
%ADD13C,0.222*%
%ADD14C,0.111*%
%ADD15C,0.600*%
%LPD*%
G54D10*
X75922Y53933D02*
X69928Y46948D01*
X81916Y77936D01*
X75922Y73948D01*
G54D10*
X73915Y96935D02*
X65914Y66938D01*
X78919Y94954D01*
G54D10*
X65914Y66938D02*
X77903Y74939D01*
X69928Y46948D01*
X68912Y55940D01*
G54D10*
X27916Y41005D02*
X74906Y110855D01*
X121896Y41005D01*
X27916Y41005D01*
G54D11*
X748890Y158950D02*
X598890Y158950D01*
G54D11*
X598890Y158950D02*
X598890Y33950D01*
G54D11*
X748890Y158950D02*
X748890Y33950D01*
X598890Y33950D01*
G54D11*
G75*
G01X708890Y96450D02*
G03X708890Y96450I-35000J0D01*
G01*
G54D11*
X673890Y131450D02*
X703890Y78950D01*
G54D11*
G75*
G01X683890Y96450D02*
G03X683890Y96450I-10000J0D01*
G01*
G54D11*
G75*
G01X632839Y107450D02*
G03X632839Y85450I41051J-11000D01*
G01*
G54D11*
X633890Y108950D02*
X631390Y106450D01*
G54D11*
X633890Y108950D02*
X633890Y103950D01*
G54D11*
X633890Y83950D02*
X631390Y86450D01*
G54D11*
X633890Y83950D02*
X633890Y88950D01*
G54D11*
G75*
G01X676390Y96450D02*
G03X676390Y96450I-2500J0D01*
G01*
G54D12*
X776624Y728537D02*
X3511Y728537D01*
X3511Y299912D01*
X776624Y299912D01*
X776624Y728537D01*
G54D12*
X676611Y299912D02*
X73361Y299912D01*
X73361Y728537D01*
X676611Y728537D01*
X676611Y299912D01*
G54D11*
X744873Y352300D02*
X744873Y345900D01*
X751173Y339600D01*
X763973Y339600D01*
X770273Y345900D01*
X770273Y358700D01*
X763973Y365000D01*
X751173Y365000D01*
X744873Y358700D01*
X744873Y352300D01*
G54D11*
X744873Y377700D02*
X744873Y371300D01*
X751173Y365000D01*
X763973Y365000D01*
X770273Y371300D01*
X770273Y384100D01*
X763973Y390400D01*
X751173Y390400D01*
X744873Y384100D01*
X744873Y377700D01*
G54D11*
X744873Y403100D02*
X744873Y396700D01*
X751173Y390400D01*
X763973Y390400D01*
X770273Y396700D01*
X770273Y409500D01*
X763973Y415800D01*
X751173Y415800D01*
X744873Y409500D01*
X744873Y403100D01*
G54D11*
X744873Y428500D02*
X744873Y422100D01*
X751173Y415800D01*
X763973Y415800D01*
X770273Y422100D01*
X770273Y434900D01*
X763973Y441200D01*
X751173Y441200D01*
X744873Y434900D01*
X744873Y428500D01*
G54D11*
X744873Y453900D02*
X744873Y447500D01*
X751173Y441200D01*
X763973Y441200D01*
X770273Y447500D01*
X770273Y460300D01*
X763973Y466600D01*
X751173Y466600D01*
X744873Y460300D01*
X744873Y453900D01*
G54D11*
X744873Y479300D02*
X744873Y472900D01*
X751173Y466600D01*
X763973Y466600D01*
X770273Y472900D01*
X770273Y485700D01*
X763973Y492000D01*
X751173Y492000D01*
X744873Y485700D01*
X744873Y479300D01*
G54D11*
X744873Y504700D02*
X744873Y498300D01*
X751173Y492000D01*
X763973Y492000D01*
X770273Y498300D01*
X770273Y511100D01*
X763973Y517400D01*
X751173Y517400D01*
X744873Y511100D01*
X744873Y504700D01*
G54D11*
X744873Y530100D02*
X744873Y523700D01*
X751173Y517400D01*
X763973Y517400D01*
X770273Y523700D01*
X770273Y536500D01*
X763973Y542800D01*
X751173Y542800D01*
X744873Y536500D01*
X744873Y530100D01*
G54D11*
X744873Y555500D02*
X744873Y549100D01*
X751173Y542800D01*
X763973Y542800D01*
X770273Y549100D01*
X770273Y561900D01*
X763973Y568200D01*
X751173Y568200D01*
X744873Y561900D01*
X744873Y555500D01*
G54D11*
X744873Y580900D02*
X744873Y574500D01*
X751173Y568200D01*
X763973Y568200D01*
X770273Y574500D01*
X770273Y587300D01*
X763973Y593600D01*
X751173Y593600D01*
X744873Y587300D01*
X744873Y580900D01*
G54D11*
X744873Y606300D02*
X744873Y599900D01*
X751173Y593600D01*
X763973Y593600D01*
X770273Y599900D01*
X770273Y612700D01*
X763973Y619000D01*
X751173Y619000D01*
X744873Y612700D01*
X744873Y606300D01*
G54D11*
X744873Y631700D02*
X744873Y625300D01*
X751173Y619000D01*
X763973Y619000D01*
X770273Y625300D01*
X770273Y638100D01*
X763973Y644400D01*
X751173Y644400D01*
X744873Y638100D01*
X744873Y631700D01*
G54D11*
X744873Y657100D02*
X744873Y650700D01*
X751173Y644400D01*
X763973Y644400D01*
X770273Y650700D01*
X770273Y663500D01*
X763973Y669800D01*
X751173Y669800D01*
X744873Y663500D01*
X744873Y657100D01*
G54D11*
X744873Y682500D02*
X744873Y676100D01*
X751173Y669800D01*
X763973Y669800D01*
X770273Y676100D01*
X770273Y688900D01*
X763973Y695200D01*
X751173Y695200D01*
X744873Y688900D01*
X744873Y682500D01*
G54D11*
X9860Y472950D02*
X9860Y466550D01*
X16160Y460250D01*
X28960Y460250D01*
X35260Y466550D01*
X35260Y479350D01*
X28960Y485650D01*
X16160Y485650D01*
X9860Y479350D01*
X9860Y472950D01*
G54D11*
X9860Y498350D02*
X9860Y491950D01*
X16160Y485650D01*
X28960Y485650D01*
X35260Y491950D01*
X35260Y504750D01*
X28960Y511050D01*
X16160Y511050D01*
X9860Y504750D01*
X9860Y498350D01*
G54D11*
X9860Y523750D02*
X9860Y517350D01*
X16160Y511050D01*
X28960Y511050D01*
X35260Y517350D01*
X35260Y530150D01*
X28960Y536450D01*
X16160Y536450D01*
X9860Y530150D01*
X9860Y523750D01*
G54D11*
X9860Y549150D02*
X9860Y542750D01*
X16160Y536450D01*
X28960Y536450D01*
X35260Y542750D01*
X35260Y555550D01*
X28960Y561850D01*
X16160Y561850D01*
X9860Y555550D01*
X9860Y549150D01*
G54D13*
X435844Y695941D02*
X425178Y695941D01*
X425178Y697052D01*
X426511Y699274D01*
X434511Y705941D01*
X435844Y708163D01*
X435844Y710386D01*
X434511Y712608D01*
X431844Y713719D01*
X429178Y713719D01*
X426511Y712608D01*
X425178Y710386D01*
G54D13*
X440734Y695941D02*
X440734Y695941D01*
G54D13*
X453623Y695941D02*
X453623Y713719D01*
X445623Y702608D01*
X445623Y700386D01*
X456290Y700386D01*
G54D13*
X471668Y695941D02*
X471668Y713719D01*
G54D13*
X466335Y713719D02*
X477002Y713719D01*
G54D13*
X481891Y695941D02*
X481891Y713719D01*
X491224Y713719D01*
G54D13*
X481891Y704830D02*
X491224Y704830D01*
G54D13*
X501446Y695941D02*
X501446Y713719D01*
G54D13*
X496113Y713719D02*
X506780Y713719D01*
G54D13*
X516825Y699274D02*
X518158Y697052D01*
X520825Y695941D01*
X523492Y695941D01*
X526158Y697052D01*
X527492Y699274D01*
X527492Y701497D01*
X526158Y703719D01*
X523492Y704830D01*
X520825Y704830D01*
X518158Y705941D01*
X516825Y708163D01*
X516825Y710386D01*
X518158Y712608D01*
X520825Y713719D01*
X523492Y713719D01*
X526158Y712608D01*
X527492Y710386D01*
G54D13*
X532381Y695941D02*
X532381Y713719D01*
X539048Y713719D01*
X541714Y712608D01*
X543048Y710386D01*
X543048Y708163D01*
X541714Y705941D01*
X539048Y704830D01*
X532381Y704830D01*
G54D13*
X547937Y695941D02*
X547937Y713719D01*
G54D13*
X568648Y695941D02*
X557982Y695941D01*
X557982Y697052D01*
X559315Y699274D01*
X567315Y705941D01*
X568648Y708163D01*
X568648Y710386D01*
X567315Y712608D01*
X564648Y713719D01*
X561982Y713719D01*
X559315Y712608D01*
X557982Y710386D01*
G54D13*
X581538Y695941D02*
X581538Y713719D01*
X573538Y702608D01*
X573538Y700386D01*
X584204Y700386D01*
G54D13*
X599760Y710386D02*
X599760Y699274D01*
X598427Y697052D01*
X595760Y695941D01*
X593094Y695941D01*
X590427Y697052D01*
X589094Y699274D01*
X589094Y710386D01*
X590427Y712608D01*
X593094Y713719D01*
X595760Y713719D01*
X598427Y712608D01*
X599760Y710386D01*
G54D13*
X604650Y705941D02*
X615316Y695941D01*
G54D13*
X604650Y695941D02*
X615316Y705941D01*
G54D13*
X620206Y710386D02*
X621539Y712608D01*
X624206Y713719D01*
X626872Y713719D01*
X629539Y712608D01*
X630872Y710386D01*
X630872Y708163D01*
X629539Y705941D01*
X626872Y704830D01*
X629539Y703719D01*
X630872Y701497D01*
X630872Y699274D01*
X629539Y697052D01*
X626872Y695941D01*
X624206Y695941D01*
X621539Y697052D01*
X620206Y699274D01*
G54D13*
X646428Y695941D02*
X635762Y695941D01*
X635762Y697052D01*
X637095Y699274D01*
X645095Y705941D01*
X646428Y708163D01*
X646428Y710386D01*
X645095Y712608D01*
X642428Y713719D01*
X639762Y713719D01*
X637095Y712608D01*
X635762Y710386D01*
G54D13*
X661984Y710386D02*
X661984Y699274D01*
X660651Y697052D01*
X657984Y695941D01*
X655318Y695941D01*
X652651Y697052D01*
X651318Y699274D01*
X651318Y710386D01*
X652651Y712608D01*
X655318Y713719D01*
X657984Y713719D01*
X660651Y712608D01*
X661984Y710386D01*
G54D14*
X716917Y534406D02*
X716917Y525518D01*
X721584Y525518D01*
G54D14*
X728695Y525518D02*
X724028Y525518D01*
X724028Y534406D01*
X728695Y534406D01*
G54D14*
X724028Y529962D02*
X728695Y529962D01*
G54D14*
X731139Y525518D02*
X731139Y534406D01*
X734472Y534406D01*
X735806Y533851D01*
X736472Y532740D01*
X736472Y527184D01*
X735806Y526073D01*
X734472Y525518D01*
X731139Y525518D01*
G54D14*
X716124Y502578D02*
X716790Y501467D01*
X718124Y500911D01*
X719457Y500911D01*
X720790Y501467D01*
X721457Y502578D01*
X721457Y503689D01*
X720790Y504800D01*
X719457Y505356D01*
X718124Y505356D01*
X716790Y505911D01*
X716124Y507022D01*
X716124Y508134D01*
X716790Y509245D01*
X718124Y509800D01*
X719457Y509800D01*
X720790Y509245D01*
X721457Y508134D01*
G54D14*
X729234Y502578D02*
X728567Y501467D01*
X727234Y500911D01*
X725900Y500911D01*
X724567Y501467D01*
X723900Y502578D01*
X723900Y508134D01*
X724567Y509245D01*
X725900Y509800D01*
X727234Y509800D01*
X728567Y509245D01*
X729234Y508134D01*
G54D14*
X731678Y500911D02*
X731678Y509800D01*
G54D14*
X731678Y503689D02*
X737011Y509800D01*
G54D14*
X733678Y505356D02*
X737011Y500911D01*
G54D14*
X712154Y475511D02*
X712154Y484400D01*
X715488Y478845D01*
X718821Y484400D01*
X718821Y475511D01*
G54D14*
X726599Y482734D02*
X726599Y477178D01*
X725932Y476067D01*
X724599Y475511D01*
X723266Y475511D01*
X721932Y476067D01*
X721266Y477178D01*
X721266Y482734D01*
X721932Y483845D01*
X723266Y484400D01*
X724599Y484400D01*
X725932Y483845D01*
X726599Y482734D01*
G54D14*
X729042Y477178D02*
X729709Y476067D01*
X731042Y475511D01*
X732376Y475511D01*
X733709Y476067D01*
X734376Y477178D01*
X734376Y478289D01*
X733709Y479400D01*
X732376Y479956D01*
X731042Y479956D01*
X729709Y480511D01*
X729042Y481622D01*
X729042Y482734D01*
X729709Y483845D01*
X731042Y484400D01*
X732376Y484400D01*
X733709Y483845D01*
X734376Y482734D01*
G54D14*
X736820Y475511D02*
X736820Y484400D01*
G54D14*
X723267Y449318D02*
X723267Y458206D01*
X726600Y458206D01*
X727934Y457651D01*
X728600Y456540D01*
X728600Y450984D01*
X727934Y449873D01*
X726600Y449318D01*
X723267Y449318D01*
G54D14*
X736378Y450984D02*
X735711Y449873D01*
X734378Y449318D01*
X733044Y449318D01*
X731711Y449873D01*
X731044Y450984D01*
X731044Y456540D01*
X731711Y457651D01*
X733044Y458206D01*
X734378Y458206D01*
X735711Y457651D01*
X736378Y456540D01*
G54D14*
X703709Y429156D02*
X705709Y428045D01*
X706376Y426934D01*
X706376Y424711D01*
G54D14*
X701042Y424711D02*
X701042Y433600D01*
X704376Y433600D01*
X705709Y433045D01*
X706376Y431934D01*
X706376Y430822D01*
X705709Y429711D01*
X704376Y429156D01*
X701042Y429156D01*
G54D14*
X713486Y424711D02*
X708819Y424711D01*
X708819Y433600D01*
X713486Y433600D01*
G54D14*
X708819Y429156D02*
X713486Y429156D01*
G54D14*
X715930Y426378D02*
X716597Y425267D01*
X717930Y424711D01*
X719264Y424711D01*
X720597Y425267D01*
X721264Y426378D01*
X721264Y427489D01*
X720597Y428600D01*
X719264Y429156D01*
X717930Y429156D01*
X716597Y429711D01*
X715930Y430822D01*
X715930Y431934D01*
X716597Y433045D01*
X717930Y433600D01*
X719264Y433600D01*
X720597Y433045D01*
X721264Y431934D01*
G54D14*
X728374Y424711D02*
X723707Y424711D01*
X723707Y433600D01*
X728374Y433600D01*
G54D14*
X723707Y429156D02*
X728374Y429156D01*
G54D14*
X733485Y424711D02*
X733485Y433600D01*
G54D14*
X730818Y433600D02*
X736152Y433600D01*
G54D14*
X727807Y401772D02*
X727140Y400660D01*
X725807Y400105D01*
X724474Y400105D01*
X723140Y400660D01*
X722474Y401772D01*
X722474Y407327D01*
X723140Y408438D01*
X724474Y408994D01*
X725807Y408994D01*
X727140Y408438D01*
X727807Y407327D01*
G54D14*
X730250Y401772D02*
X730917Y400660D01*
X732250Y400105D01*
X733584Y400105D01*
X734917Y400660D01*
X735584Y401772D01*
X735584Y402883D01*
X734917Y403994D01*
X733584Y404550D01*
X732250Y404550D01*
X730917Y405105D01*
X730250Y406216D01*
X730250Y407327D01*
X730917Y408438D01*
X732250Y408994D01*
X733584Y408994D01*
X734917Y408438D01*
X735584Y407327D01*
G54D14*
X718790Y378356D02*
X721457Y378356D01*
X721457Y375578D01*
X720790Y374467D01*
X719457Y373911D01*
X718124Y373911D01*
X716790Y374467D01*
X716124Y375578D01*
X716124Y381134D01*
X716790Y382245D01*
X718124Y382800D01*
X719457Y382800D01*
X720790Y382245D01*
X721457Y381134D01*
G54D14*
X723900Y373911D02*
X723900Y382800D01*
X729234Y373911D01*
X729234Y382800D01*
G54D14*
X731678Y373911D02*
X731678Y382800D01*
X735011Y382800D01*
X736344Y382245D01*
X737011Y381134D01*
X737011Y375578D01*
X736344Y374467D01*
X735011Y373911D01*
X731678Y373911D01*
G54D14*
X747080Y332000D02*
X750413Y323111D01*
X753746Y332000D01*
G54D14*
X761524Y324778D02*
X760857Y323667D01*
X759524Y323111D01*
X758190Y323111D01*
X756857Y323667D01*
X756190Y324778D01*
X756190Y330334D01*
X756857Y331445D01*
X758190Y332000D01*
X759524Y332000D01*
X760857Y331445D01*
X761524Y330334D01*
G54D14*
X769301Y324778D02*
X768634Y323667D01*
X767301Y323111D01*
X765968Y323111D01*
X764634Y323667D01*
X763968Y324778D01*
X763968Y330334D01*
X764634Y331445D01*
X765968Y332000D01*
X767301Y332000D01*
X768634Y331445D01*
X769301Y330334D01*
G54D13*
X508804Y84803D02*
X509737Y83247D01*
X511604Y82469D01*
X513471Y82469D01*
X515337Y83247D01*
X516271Y84803D01*
X516271Y86358D01*
X515337Y87914D01*
X513471Y88692D01*
X511604Y88692D01*
X509737Y89469D01*
X508804Y91025D01*
X508804Y92580D01*
X509737Y94136D01*
X511604Y94914D01*
X513471Y94914D01*
X515337Y94136D01*
X516271Y92580D01*
G54D13*
X527160Y82469D02*
X520627Y82469D01*
X520627Y94914D01*
X527160Y94914D01*
G54D13*
X520627Y88692D02*
X527160Y88692D01*
G54D13*
X531516Y94914D02*
X531516Y82469D01*
X538049Y82469D01*
G54D13*
X548938Y82469D02*
X542405Y82469D01*
X542405Y94914D01*
X548938Y94914D01*
G54D13*
X542405Y88692D02*
X548938Y88692D01*
G54D13*
X560761Y84803D02*
X559827Y83247D01*
X557961Y82469D01*
X556094Y82469D01*
X554227Y83247D01*
X553294Y84803D01*
X553294Y92580D01*
X554227Y94136D01*
X556094Y94914D01*
X557961Y94914D01*
X559827Y94136D01*
X560761Y92580D01*
G54D13*
X568850Y82469D02*
X568850Y94914D01*
G54D13*
X565117Y94914D02*
X572584Y94914D01*
G54D15*
X327819Y5556D02*
X465534Y143272D01*
X466328Y367903D01*
X446881Y387350D01*
X446881Y470694D01*
X372269Y545306D01*
X372269Y648494D01*
X291306Y731044D01*
M02*
