%FSLAX34Y34*%
%MOMM*%
%LNSOLDERMASK_BOTTOM*%
G71*
G01*
%ADD10R,1.470X0.759*%
%ADD11R,0.759X1.470*%
%ADD12C,1.800*%
%ADD13R,1.500X1.800*%
%ADD14R,2.500X0.800*%
%ADD15C,1.500*%
%ADD16R,2.990X1.580*%
%ADD17R,7.200X6.200*%
%ADD18R,2.740X1.470*%
%ADD19R,1.800X1.500*%
%ADD20C,1.900*%
%ADD21C,2.400*%
%ADD22C,3.200*%
%ADD23C,2.600*%
%ADD24C,4.900*%
%ADD25C,2.200*%
%ADD26C,4.200*%
%ADD27R,0.850X1.470*%
%ADD28C,2.200*%
%ADD29R,1.500X1.600*%
%ADD30C,6.600*%
%ADD31C,0.800*%
%LPD*%
X582263Y499914D02*
G54D10*
D03*
X582263Y507915D02*
G54D10*
D03*
X582263Y515916D02*
G54D10*
D03*
X582263Y523917D02*
G54D10*
D03*
X582263Y531918D02*
G54D10*
D03*
X582263Y539919D02*
G54D10*
D03*
X582263Y547920D02*
G54D10*
D03*
X582263Y555921D02*
G54D10*
D03*
X668115Y555921D02*
G54D10*
D03*
X668115Y547920D02*
G54D10*
D03*
X668115Y539919D02*
G54D10*
D03*
X668115Y531918D02*
G54D10*
D03*
X668115Y523917D02*
G54D10*
D03*
X668115Y515916D02*
G54D10*
D03*
X668115Y507915D02*
G54D10*
D03*
X668115Y499914D02*
G54D10*
D03*
X653180Y484979D02*
G54D11*
D03*
X645179Y484979D02*
G54D11*
D03*
X637178Y484979D02*
G54D11*
D03*
X629176Y484979D02*
G54D11*
D03*
X621176Y484979D02*
G54D11*
D03*
X613174Y484979D02*
G54D11*
D03*
X605174Y484979D02*
G54D11*
D03*
X597172Y484979D02*
G54D11*
D03*
X597172Y570831D02*
G54D11*
D03*
X605174Y570831D02*
G54D11*
D03*
X613174Y570831D02*
G54D11*
D03*
X621176Y570831D02*
G54D11*
D03*
X629176Y570831D02*
G54D11*
D03*
X637178Y570831D02*
G54D11*
D03*
X645179Y570831D02*
G54D11*
D03*
X653180Y570831D02*
G54D11*
D03*
G36*
X663526Y446918D02*
X663526Y428918D01*
X645526Y428918D01*
X645526Y446918D01*
X663526Y446918D01*
G37*
X629127Y437918D02*
G54D12*
D03*
X603726Y437919D02*
G54D12*
D03*
X578326Y437919D02*
G54D12*
D03*
X552926Y437919D02*
G54D12*
D03*
X527526Y437919D02*
G54D12*
D03*
X545824Y483620D02*
G54D13*
D03*
X524443Y483620D02*
G54D13*
D03*
X540318Y543547D02*
G54D14*
D03*
X540318Y531641D02*
G54D14*
D03*
X539921Y519735D02*
G54D14*
D03*
X483962Y484413D02*
G54D15*
D03*
X484334Y462214D02*
G54D15*
D03*
X620263Y703898D02*
G54D16*
D03*
X620264Y661618D02*
G54D16*
D03*
X544800Y655748D02*
G54D17*
D03*
X483309Y678048D02*
G54D18*
D03*
X483309Y633548D02*
G54D18*
D03*
X467037Y710144D02*
G54D13*
D03*
X488419Y710144D02*
G54D13*
D03*
X694676Y553842D02*
G54D19*
D03*
X694676Y532460D02*
G54D19*
D03*
G54D20*
X505675Y344234D02*
X522675Y344234D01*
G54D20*
X429475Y318834D02*
X446475Y318834D01*
G54D20*
X505675Y318834D02*
X522675Y318834D01*
G54D20*
X429475Y344234D02*
X446475Y344234D01*
G54D20*
X505675Y293434D02*
X522675Y293434D01*
G54D20*
X429475Y191834D02*
X446475Y191834D01*
G54D20*
X505675Y217234D02*
X522675Y217234D01*
G54D20*
X429475Y217234D02*
X446475Y217234D01*
G54D20*
X505675Y191834D02*
X522675Y191834D01*
G54D20*
X429475Y242634D02*
X446475Y242634D01*
X225250Y315659D02*
G54D21*
D03*
X257000Y356934D02*
G54D21*
D03*
X312959Y356934D02*
G54D21*
D03*
X376447Y381780D02*
G54D21*
D03*
X257000Y433134D02*
G54D21*
D03*
X312563Y433134D02*
G54D21*
D03*
X376447Y460361D02*
G54D21*
D03*
X301450Y315659D02*
G54D21*
D03*
G36*
X419975Y302934D02*
X455975Y302934D01*
X455975Y283934D01*
X419975Y283934D01*
X419975Y302934D01*
G37*
G36*
X496175Y252134D02*
X532175Y252134D01*
X532175Y233134D01*
X496175Y233134D01*
X496175Y252134D01*
G37*
X191829Y33906D02*
G54D22*
D03*
X191830Y85907D02*
G54D22*
D03*
G36*
X291199Y214202D02*
X291199Y188202D01*
X265199Y188202D01*
X265199Y214202D01*
X291199Y214202D01*
G37*
X303599Y232952D02*
G54D23*
D03*
X328999Y201202D02*
G54D23*
D03*
X136338Y363901D02*
G54D24*
D03*
X133163Y154351D02*
G54D24*
D03*
X660496Y233410D02*
G54D22*
D03*
X591032Y233411D02*
G54D22*
D03*
X378485Y228298D02*
G54D21*
D03*
X378485Y165598D02*
G54D21*
D03*
X598890Y121450D02*
G54D25*
D03*
X598890Y71450D02*
G54D25*
D03*
X598890Y96450D02*
G54D25*
D03*
X748890Y121450D02*
G54D25*
D03*
X748890Y71450D02*
G54D25*
D03*
X673890Y158950D02*
G54D26*
D03*
X673890Y33950D02*
G54D26*
D03*
X610714Y295938D02*
G54D27*
D03*
X623414Y295938D02*
G54D27*
D03*
X636114Y295937D02*
G54D27*
D03*
X648814Y295938D02*
G54D27*
D03*
X648814Y348325D02*
G54D27*
D03*
X636114Y348325D02*
G54D27*
D03*
X623414Y348325D02*
G54D27*
D03*
X610714Y348325D02*
G54D27*
D03*
X578964Y307894D02*
G54D19*
D03*
X578964Y329275D02*
G54D19*
D03*
X402235Y555825D02*
G54D25*
D03*
X402234Y708224D02*
G54D25*
D03*
X122834Y657425D02*
G54D25*
D03*
X122834Y606625D02*
G54D25*
D03*
G54D28*
X493856Y41222D02*
X513856Y41222D01*
G36*
X482856Y128221D02*
X524856Y128221D01*
X524856Y106221D01*
X482856Y106221D01*
X482856Y128221D01*
G37*
X627062Y122238D02*
G54D29*
D03*
X646856Y122238D02*
G54D29*
D03*
X627062Y69850D02*
G54D29*
D03*
X646856Y69850D02*
G54D29*
D03*
X604838Y166688D02*
G54D13*
D03*
X626218Y166688D02*
G54D13*
D03*
X590550Y30163D02*
G54D13*
D03*
X611931Y30163D02*
G54D13*
D03*
X709155Y332456D02*
G54D30*
D03*
X685154Y332456D02*
G54D31*
D03*
X692184Y349426D02*
G54D31*
D03*
X709155Y356456D02*
G54D31*
D03*
X726125Y349426D02*
G54D31*
D03*
X733154Y332456D02*
G54D31*
D03*
X726125Y315485D02*
G54D31*
D03*
X709155Y308456D02*
G54D31*
D03*
X692184Y315485D02*
G54D31*
D03*
X709612Y699962D02*
G54D30*
D03*
X685611Y699962D02*
G54D31*
D03*
X692640Y716933D02*
G54D31*
D03*
X709611Y723962D02*
G54D31*
D03*
X726582Y716933D02*
G54D31*
D03*
X733611Y699962D02*
G54D31*
D03*
X726582Y682991D02*
G54D31*
D03*
X709611Y675962D02*
G54D31*
D03*
X692640Y682991D02*
G54D31*
D03*
X757573Y352300D02*
G54D25*
D03*
X757573Y377700D02*
G54D25*
D03*
X757573Y403100D02*
G54D25*
D03*
X757573Y428500D02*
G54D25*
D03*
X757573Y453900D02*
G54D25*
D03*
X757573Y479300D02*
G54D25*
D03*
X757573Y504700D02*
G54D25*
D03*
X757573Y530100D02*
G54D25*
D03*
X34924Y331662D02*
G54D30*
D03*
X10923Y331662D02*
G54D31*
D03*
X17953Y348633D02*
G54D31*
D03*
X34924Y355662D02*
G54D31*
D03*
X51894Y348633D02*
G54D31*
D03*
X58924Y331662D02*
G54D31*
D03*
X51894Y314692D02*
G54D31*
D03*
X34924Y307662D02*
G54D31*
D03*
X17953Y314692D02*
G54D31*
D03*
X33336Y699962D02*
G54D30*
D03*
X9336Y699962D02*
G54D31*
D03*
X16366Y716933D02*
G54D31*
D03*
X33336Y723962D02*
G54D31*
D03*
X50306Y716933D02*
G54D31*
D03*
X57336Y699962D02*
G54D31*
D03*
X50306Y682992D02*
G54D31*
D03*
X33336Y675962D02*
G54D31*
D03*
X16366Y682992D02*
G54D31*
D03*
X187464Y433956D02*
G54D22*
D03*
X187464Y485957D02*
G54D22*
D03*
X504280Y578100D02*
G54D25*
D03*
X486319Y560139D02*
G54D25*
D03*
X535335Y407541D02*
G54D29*
D03*
X555129Y407541D02*
G54D29*
D03*
M02*
