; Drill file
; Format: 3.3 (000.000)
M48
METRIC
T01C0.4
T02C1.0
T03C2.5
T04C3.2
%
G05
G90
T01
X003490Y030770
X005190Y031470
X005890Y033170
X005190Y034860
X003490Y035570
X001800Y034860
X001090Y033170
X001800Y031470
X003330Y067600
X005030Y068300
X005730Y070000
X005030Y071690
X003330Y072400
X001640Y071690
X000930Y070000
X001640Y068300
X055700Y058880
X060480Y059730
X061280Y061080
X062150Y059770
X064910Y062610
X069650Y059570
X071950Y058020
X064060Y055480
X063050Y054040
X065060Y052370
X061020Y052370
X060290Y050130
X058300Y048460
X056220Y048410
X062090Y047100
X063980Y045720
X065170Y045920
X064850Y041280
X065520Y037860
X066640Y036550
X069220Y034940
X070920Y035650
X072610Y034940
X073320Y033250
X072610Y031550
X070920Y030850
X069220Y031550
X068520Y033250
X062390Y032740
X058480Y040700
X051090Y039270
X069180Y042270
X070130Y040640
X071680Y040680
X070960Y067600
X072660Y068300
X073360Y070000
X072660Y071690
X070960Y072400
X069260Y071690
X068560Y070000
X069260Y068300
T02
X019180Y003390
X019180Y008590
X027820Y020120
X030360Y023300
X032900Y020120
X037850Y022830
X043800Y021720
X043800Y019180
X043800Y024260
X043800Y029340
X043800Y031880
X043800Y034420
X037640Y038180
X031300Y035690
X030140Y031570
X025700Y035690
X022520Y031570
X025700Y043310
X031260Y043310
X037640Y046040
X040220Y055580
X048630Y056010
X050430Y057810
X052750Y043790
X055290Y043790
X057830Y043790
X060370Y043790
X062910Y043790
X065450Y043790
X075760Y042850
X075760Y040310
X075760Y037770
X075760Y035230
X075760Y045390
X075760Y047930
X075760Y050470
X075760Y053010
X075760Y055550
X075760Y058090
X075760Y060630
X075760Y063170
X075760Y065710
X075760Y068250
X040220Y070820
X012280Y065740
X012280Y060660
X002260Y054920
X002260Y052380
X002260Y049840
X002260Y047300
X018750Y048600
X018750Y043400
X037850Y016560
X050390Y011720
X051420Y019180
X051420Y021720
X051420Y024260
X051420Y029340
X051420Y031880
X051420Y034420
X059100Y023340
X066050Y023340
X059890Y012140
X059890Y009640
X059890Y007140
X050390Y004120
X074890Y007140
X074890Y012140
T03
X013320Y015440
X013630Y036390
X067390Y015900
X067390Y003400
T04
X003490Y033170
X003330Y070000
X070960Y070000
X070920Y033250
M30
