%FSLAX34Y34*%
%MOMM*%
%LNCOPPER_TOP*%
G71*
G01*
%ADD10C,2.400*%
%ADD11C,1.610*%
%ADD12C,1.100*%
%ADD13C,1.400*%
%ADD14C,2.500*%
%ADD15C,3.000*%
%ADD16C,3.800*%
%ADD17C,3.200*%
%ADD18C,5.500*%
%ADD19C,2.800*%
%ADD20C,4.800*%
%ADD21C,2.800*%
%ADD22C,7.200*%
%ADD23C,1.400*%
%ADD24C,1.800*%
%ADD25C,0.300*%
%ADD26C,1.157*%
%ADD27C,1.141*%
%ADD28C,1.700*%
%ADD29C,1.473*%
%ADD30C,1.240*%
%ADD31C,1.320*%
%ADD32C,1.200*%
%ADD33C,2.133*%
%ADD34C,0.200*%
%ADD35C,1.653*%
%ADD36C,0.810*%
%ADD37C,1.600*%
%ADD38C,0.810*%
%ADD39C,0.600*%
%ADD40C,2.200*%
%ADD41C,4.700*%
%ADD42C,2.000*%
%ADD43C,4.000*%
%ADD44C,2.000*%
%ADD45C,6.400*%
%ADD46C,0.600*%
%LPD*%
G36*
X-12700Y746397D02*
X796300Y746397D01*
X796300Y-15603D01*
X-12700Y-15603D01*
X-12700Y746397D01*
G37*
%LPC*%
G36*
X666526Y449918D02*
X666526Y425918D01*
X642526Y425918D01*
X642526Y449918D01*
X666526Y449918D01*
G37*
X629127Y437918D02*
G54D10*
D03*
X603726Y437919D02*
G54D10*
D03*
X578326Y437919D02*
G54D10*
D03*
X552926Y437919D02*
G54D10*
D03*
X527526Y437919D02*
G54D10*
D03*
X630460Y540408D02*
G54D11*
D03*
X620934Y470955D02*
G54D11*
D03*
X562197Y484052D02*
G54D11*
D03*
G54D12*
X620934Y470955D02*
X575294Y470955D01*
X562197Y484052D01*
G54D13*
X630460Y540408D02*
X630460Y462668D01*
X605710Y437919D01*
G54D14*
X505675Y344234D02*
X522675Y344234D01*
G54D14*
X429475Y318834D02*
X446475Y318834D01*
G54D14*
X505675Y318834D02*
X522675Y318834D01*
G54D14*
X429475Y344234D02*
X446475Y344234D01*
G54D14*
X505675Y293434D02*
X522675Y293434D01*
G54D14*
X429475Y191834D02*
X446475Y191834D01*
G54D14*
X505675Y217234D02*
X522675Y217234D01*
G54D14*
X429475Y217234D02*
X446475Y217234D01*
G54D14*
X505675Y191834D02*
X522675Y191834D01*
G54D14*
X429475Y242634D02*
X446475Y242634D01*
X225250Y315659D02*
G54D15*
D03*
X257000Y356934D02*
G54D15*
D03*
X312959Y356934D02*
G54D15*
D03*
X376447Y381780D02*
G54D15*
D03*
X257000Y433134D02*
G54D15*
D03*
X312563Y433134D02*
G54D15*
D03*
X376447Y460361D02*
G54D15*
D03*
X301450Y315659D02*
G54D15*
D03*
G36*
X416975Y305934D02*
X458975Y305934D01*
X458975Y280934D01*
X416975Y280934D01*
X416975Y305934D01*
G37*
G36*
X493175Y255134D02*
X535175Y255134D01*
X535175Y230134D01*
X493175Y230134D01*
X493175Y255134D01*
G37*
X191829Y33906D02*
G54D16*
D03*
X191830Y85907D02*
G54D16*
D03*
G36*
X294199Y217202D02*
X294199Y185202D01*
X262199Y185202D01*
X262199Y217202D01*
X294199Y217202D01*
G37*
X303599Y232952D02*
G54D17*
D03*
X328999Y201202D02*
G54D17*
D03*
X136338Y363901D02*
G54D18*
D03*
X133163Y154351D02*
G54D18*
D03*
X660496Y233410D02*
G54D16*
D03*
X591032Y233411D02*
G54D16*
D03*
X378485Y228298D02*
G54D15*
D03*
X378485Y165598D02*
G54D15*
D03*
X598890Y121450D02*
G54D19*
D03*
X598890Y71450D02*
G54D19*
D03*
X598890Y96450D02*
G54D19*
D03*
X748890Y121450D02*
G54D19*
D03*
X748890Y71450D02*
G54D19*
D03*
X673890Y158950D02*
G54D20*
D03*
X673890Y33950D02*
G54D20*
D03*
X402235Y555825D02*
G54D19*
D03*
X402234Y708224D02*
G54D19*
D03*
X122834Y657425D02*
G54D19*
D03*
X122834Y606625D02*
G54D19*
D03*
G54D21*
X493856Y41222D02*
X513856Y41222D01*
G36*
X479856Y131221D02*
X527856Y131221D01*
X527856Y103221D01*
X479856Y103221D01*
X479856Y131221D01*
G37*
X709155Y332456D02*
G54D22*
D03*
X685154Y332456D02*
G54D23*
D03*
X692184Y349426D02*
G54D23*
D03*
X709155Y356456D02*
G54D23*
D03*
X726125Y349426D02*
G54D23*
D03*
X733154Y332456D02*
G54D23*
D03*
X726125Y315485D02*
G54D23*
D03*
X709155Y308456D02*
G54D23*
D03*
X692184Y315485D02*
G54D23*
D03*
X709612Y699962D02*
G54D22*
D03*
X685611Y699962D02*
G54D23*
D03*
X692640Y716933D02*
G54D23*
D03*
X709611Y723962D02*
G54D23*
D03*
X726582Y716933D02*
G54D23*
D03*
X733611Y699962D02*
G54D23*
D03*
X726582Y682991D02*
G54D23*
D03*
X709611Y675962D02*
G54D23*
D03*
X692640Y682991D02*
G54D23*
D03*
X757573Y352300D02*
G54D19*
D03*
X757573Y377700D02*
G54D19*
D03*
X757573Y403100D02*
G54D19*
D03*
X757573Y428500D02*
G54D19*
D03*
X757573Y453900D02*
G54D19*
D03*
X757573Y479300D02*
G54D19*
D03*
X757573Y504700D02*
G54D19*
D03*
X757573Y530100D02*
G54D19*
D03*
X34924Y331662D02*
G54D22*
D03*
X10923Y331662D02*
G54D23*
D03*
X17953Y348633D02*
G54D23*
D03*
X34924Y355662D02*
G54D23*
D03*
X51894Y348633D02*
G54D23*
D03*
X58924Y331662D02*
G54D23*
D03*
X51894Y314692D02*
G54D23*
D03*
X34924Y307662D02*
G54D23*
D03*
X17953Y314692D02*
G54D23*
D03*
X33336Y699962D02*
G54D22*
D03*
X9336Y699962D02*
G54D23*
D03*
X16366Y716933D02*
G54D23*
D03*
X33336Y723962D02*
G54D23*
D03*
X50306Y716933D02*
G54D23*
D03*
X57336Y699962D02*
G54D23*
D03*
X50306Y682992D02*
G54D23*
D03*
X33336Y675962D02*
G54D23*
D03*
X16366Y682992D02*
G54D23*
D03*
X757573Y555500D02*
G54D24*
D03*
X757573Y580900D02*
G54D24*
D03*
X757573Y606300D02*
G54D24*
D03*
X757573Y631700D02*
G54D24*
D03*
X757573Y657100D02*
G54D24*
D03*
X757573Y682500D02*
G54D24*
D03*
X22560Y472950D02*
G54D24*
D03*
X22560Y498350D02*
G54D24*
D03*
X22560Y523750D02*
G54D24*
D03*
X22560Y549150D02*
G54D24*
D03*
X187464Y433956D02*
G54D16*
D03*
X187464Y485957D02*
G54D16*
D03*
X719534Y580232D02*
G54D11*
D03*
X696515Y595710D02*
G54D11*
D03*
X621506Y597694D02*
G54D11*
D03*
X612775Y610791D02*
G54D11*
D03*
X604837Y597297D02*
G54D11*
D03*
G54D12*
X719534Y580232D02*
X722312Y580232D01*
X736997Y565547D01*
X736997Y513557D01*
X746918Y503635D01*
X759683Y503635D01*
X760748Y504700D01*
G54D12*
X696515Y595710D02*
X696515Y586979D01*
X729059Y554435D01*
X729059Y492919D01*
X743744Y479029D01*
X758889Y479029D01*
X759160Y479300D01*
G54D12*
X612775Y610791D02*
X657622Y610791D01*
X719137Y549276D01*
X719137Y466726D01*
X733822Y452041D01*
X755714Y452041D01*
X757573Y453900D01*
G54D12*
X620712Y597694D02*
X656431Y597694D01*
X710009Y544116D01*
X710009Y448072D01*
X731440Y427435D01*
X755714Y427435D01*
X756779Y428500D01*
G54D12*
X604837Y597297D02*
X604837Y590154D01*
X611187Y583804D01*
X655637Y583804D01*
X699690Y539750D01*
X699690Y444500D01*
X742553Y401638D01*
X756111Y401638D01*
X757573Y403100D01*
X583009Y484585D02*
G54D11*
D03*
X602853Y501254D02*
G54D11*
D03*
G54D12*
X601265Y501254D02*
X596900Y505619D01*
X502444Y505619D01*
X486568Y489744D01*
X486568Y250826D01*
X495300Y242094D01*
X512048Y242094D01*
X512588Y242634D01*
G54D12*
X583009Y484585D02*
X581422Y484585D01*
X570706Y495300D01*
X505618Y495300D01*
X496490Y486172D01*
X496490Y375047D01*
X509190Y362347D01*
X533400Y362347D01*
X541337Y354410D01*
X541337Y323454D01*
X536972Y319088D01*
X514429Y319088D01*
X514175Y318834D01*
G54D12*
X507428Y117221D02*
X507428Y117650D01*
X477837Y147241D01*
X477837Y518319D01*
X514747Y555229D01*
X640556Y554832D01*
X640556Y554832D02*
G54D11*
D03*
X639762Y457200D02*
G54D11*
D03*
X651668Y459185D02*
G54D11*
D03*
X648494Y412750D02*
G54D11*
D03*
X716756Y406797D02*
G54D11*
D03*
X701278Y406400D02*
G54D11*
D03*
X691753Y422672D02*
G54D11*
D03*
X655240Y378619D02*
G54D11*
D03*
X623887Y327422D02*
G54D11*
D03*
X666353Y365522D02*
G54D11*
D03*
G54D12*
X623887Y327422D02*
X657622Y327422D01*
X669925Y339726D01*
X669925Y354410D01*
X717153Y401638D01*
X717153Y406400D01*
X716756Y406797D01*
G54D12*
X666353Y365522D02*
X666353Y371476D01*
X701278Y406400D01*
G54D12*
X651668Y459185D02*
X663972Y459185D01*
X673100Y450850D01*
X673100Y423863D01*
X604044Y354807D01*
X604837Y291307D01*
X564356Y250826D01*
X564356Y142082D01*
X584988Y121450D01*
X598890Y121450D01*
G54D12*
X648494Y412750D02*
X646906Y412750D01*
X594518Y360363D01*
X594518Y296069D01*
X554037Y256382D01*
X554037Y100013D01*
X583406Y70644D01*
X598085Y70644D01*
X598890Y71450D01*
G54D12*
X639762Y457200D02*
X641350Y452438D01*
X641350Y422276D01*
X583406Y363538D01*
X583406Y300832D01*
X543718Y261144D01*
X543718Y76994D01*
X573881Y48419D01*
X630237Y48419D01*
X703262Y121444D01*
X748890Y121450D01*
G36*
X2381Y736600D02*
X286544Y736600D01*
X375444Y648494D01*
X375444Y545306D01*
X450056Y470694D01*
X450056Y384175D01*
X466328Y367903D01*
X465534Y143272D01*
X324644Y794D01*
X3175Y0D01*
X2381Y736600D01*
G37*
G54D25*
X2381Y736600D02*
X286544Y736600D01*
X375444Y648494D01*
X375444Y545306D01*
X450056Y470694D01*
X450056Y384175D01*
X466328Y367903D01*
X465534Y143272D01*
X324644Y794D01*
X3175Y0D01*
X2381Y736600D01*
X650649Y523688D02*
G54D11*
D03*
X610168Y523688D02*
G54D11*
D03*
G54D12*
X655240Y378619D02*
X658812Y378619D01*
X692150Y411957D01*
X692150Y422276D01*
X691753Y422672D01*
X556987Y588776D02*
G54D11*
D03*
X649062Y626082D02*
G54D11*
D03*
X510949Y392719D02*
G54D11*
D03*
X584768Y407007D02*
G54D11*
D03*
X504280Y578100D02*
G54D19*
D03*
X486319Y560139D02*
G54D19*
D03*
%LPD*%
G54D26*
G36*
X654526Y443705D02*
X667026Y443705D01*
X667026Y432132D01*
X654526Y432132D01*
X654526Y443705D01*
G37*
G36*
X660312Y437918D02*
X660312Y425418D01*
X648739Y425418D01*
X648739Y437918D01*
X660312Y437918D01*
G37*
G36*
X648739Y437918D02*
X648739Y450418D01*
X660312Y450418D01*
X660312Y437918D01*
X648739Y437918D01*
G37*
G54D27*
G36*
X634833Y437918D02*
X634833Y425418D01*
X623420Y425418D01*
X623420Y437918D01*
X634833Y437918D01*
G37*
G54D28*
G36*
X514175Y352734D02*
X535675Y352734D01*
X535675Y335734D01*
X514175Y335734D01*
X514175Y352734D01*
G37*
G36*
X514175Y335734D02*
X492675Y335734D01*
X492675Y352734D01*
X514175Y352734D01*
X514175Y335734D01*
G37*
G54D29*
G36*
X514175Y224601D02*
X535675Y224601D01*
X535675Y209868D01*
X514175Y209868D01*
X514175Y224601D01*
G37*
G36*
X514175Y209868D02*
X492675Y209868D01*
X492675Y224601D01*
X514175Y224601D01*
X514175Y209868D01*
G37*
G54D30*
G36*
X598890Y102650D02*
X613390Y102650D01*
X613390Y90250D01*
X598890Y90250D01*
X598890Y102650D01*
G37*
G36*
X598890Y90250D02*
X584390Y90250D01*
X584390Y102650D01*
X598890Y102650D01*
X598890Y90250D01*
G37*
G54D31*
G36*
X748890Y78050D02*
X763390Y78050D01*
X763390Y64850D01*
X748890Y64850D01*
X748890Y78050D01*
G37*
G36*
X755490Y71450D02*
X755490Y56950D01*
X742290Y56950D01*
X742290Y71450D01*
X755490Y71450D01*
G37*
G36*
X748890Y64850D02*
X734390Y64850D01*
X734390Y78050D01*
X748890Y78050D01*
X748890Y64850D01*
G37*
G36*
X742290Y71450D02*
X742290Y85950D01*
X755490Y85950D01*
X755490Y71450D01*
X742290Y71450D01*
G37*
G54D32*
G36*
X402235Y561825D02*
X416735Y561825D01*
X416735Y549825D01*
X402235Y549825D01*
X402235Y561825D01*
G37*
G36*
X408235Y555825D02*
X408235Y541325D01*
X396235Y541325D01*
X396235Y555825D01*
X408235Y555825D01*
G37*
G36*
X402235Y549825D02*
X387735Y549825D01*
X387735Y561825D01*
X402235Y561825D01*
X402235Y549825D01*
G37*
G36*
X396235Y555825D02*
X396235Y570325D01*
X408235Y570325D01*
X408235Y555825D01*
X396235Y555825D01*
G37*
G54D32*
G36*
X497856Y41222D02*
X497856Y55722D01*
X509856Y55722D01*
X509856Y41222D01*
X497856Y41222D01*
G37*
G36*
X503856Y47222D02*
X528356Y47222D01*
X528356Y35222D01*
X503856Y35222D01*
X503856Y47222D01*
G37*
G36*
X509856Y41222D02*
X509856Y26722D01*
X497856Y26722D01*
X497856Y41222D01*
X509856Y41222D01*
G37*
G36*
X503856Y35222D02*
X479356Y35222D01*
X479356Y47222D01*
X503856Y47222D01*
X503856Y35222D01*
G37*
G54D33*
G36*
X719821Y332456D02*
X719821Y295956D01*
X698488Y295956D01*
X698488Y332456D01*
X719821Y332456D01*
G37*
G36*
X698488Y332456D02*
X698488Y368956D01*
X719821Y368956D01*
X719821Y332456D01*
X698488Y332456D01*
G37*
G36*
X709155Y343122D02*
X745655Y343122D01*
X745655Y321789D01*
X709155Y321789D01*
X709155Y343122D01*
G37*
G54D34*
G36*
X686154Y332456D02*
X686154Y324956D01*
X684154Y324956D01*
X684154Y332456D01*
X686154Y332456D01*
G37*
G36*
X685154Y331456D02*
X677654Y331456D01*
X677654Y333456D01*
X685154Y333456D01*
X685154Y331456D01*
G37*
G36*
X684154Y332456D02*
X684154Y339956D01*
X686154Y339956D01*
X686154Y332456D01*
X684154Y332456D01*
G37*
G36*
X685154Y333456D02*
X692654Y333456D01*
X692654Y331456D01*
X685154Y331456D01*
X685154Y333456D01*
G37*
G54D34*
G36*
X693184Y349426D02*
X693184Y341926D01*
X691184Y341926D01*
X691184Y349426D01*
X693184Y349426D01*
G37*
G36*
X692184Y348426D02*
X684684Y348426D01*
X684684Y350426D01*
X692184Y350426D01*
X692184Y348426D01*
G37*
G36*
X691184Y349426D02*
X691184Y356926D01*
X693184Y356926D01*
X693184Y349426D01*
X691184Y349426D01*
G37*
G36*
X692184Y350426D02*
X699684Y350426D01*
X699684Y348426D01*
X692184Y348426D01*
X692184Y350426D01*
G37*
G54D34*
G36*
X710155Y356456D02*
X710155Y348956D01*
X708155Y348956D01*
X708155Y356456D01*
X710155Y356456D01*
G37*
G36*
X709155Y355456D02*
X701655Y355456D01*
X701655Y357456D01*
X709155Y357456D01*
X709155Y355456D01*
G37*
G36*
X708155Y356456D02*
X708155Y363956D01*
X710155Y363956D01*
X710155Y356456D01*
X708155Y356456D01*
G37*
G36*
X709155Y357456D02*
X716655Y357456D01*
X716655Y355456D01*
X709155Y355456D01*
X709155Y357456D01*
G37*
G54D34*
G36*
X727125Y349426D02*
X727125Y341926D01*
X725125Y341926D01*
X725125Y349426D01*
X727125Y349426D01*
G37*
G36*
X726125Y348426D02*
X718625Y348426D01*
X718625Y350426D01*
X726125Y350426D01*
X726125Y348426D01*
G37*
G36*
X725125Y349426D02*
X725125Y356926D01*
X727125Y356926D01*
X727125Y349426D01*
X725125Y349426D01*
G37*
G36*
X726125Y350426D02*
X733625Y350426D01*
X733625Y348426D01*
X726125Y348426D01*
X726125Y350426D01*
G37*
G54D34*
G36*
X734154Y332456D02*
X734154Y324956D01*
X732154Y324956D01*
X732154Y332456D01*
X734154Y332456D01*
G37*
G36*
X733154Y331456D02*
X725654Y331456D01*
X725654Y333456D01*
X733154Y333456D01*
X733154Y331456D01*
G37*
G36*
X732154Y332456D02*
X732154Y339956D01*
X734154Y339956D01*
X734154Y332456D01*
X732154Y332456D01*
G37*
G36*
X733154Y333456D02*
X740654Y333456D01*
X740654Y331456D01*
X733154Y331456D01*
X733154Y333456D01*
G37*
G54D34*
G36*
X727125Y315485D02*
X727125Y307985D01*
X725125Y307985D01*
X725125Y315485D01*
X727125Y315485D01*
G37*
G36*
X726125Y314485D02*
X718625Y314485D01*
X718625Y316485D01*
X726125Y316485D01*
X726125Y314485D01*
G37*
G36*
X725125Y315485D02*
X725125Y322985D01*
X727125Y322985D01*
X727125Y315485D01*
X725125Y315485D01*
G37*
G36*
X726125Y316485D02*
X733625Y316485D01*
X733625Y314485D01*
X726125Y314485D01*
X726125Y316485D01*
G37*
G54D34*
G36*
X710155Y308456D02*
X710155Y300956D01*
X708155Y300956D01*
X708155Y308456D01*
X710155Y308456D01*
G37*
G36*
X709155Y307456D02*
X701655Y307456D01*
X701655Y309456D01*
X709155Y309456D01*
X709155Y307456D01*
G37*
G36*
X708155Y308456D02*
X708155Y315956D01*
X710155Y315956D01*
X710155Y308456D01*
X708155Y308456D01*
G37*
G36*
X709155Y309456D02*
X716655Y309456D01*
X716655Y307456D01*
X709155Y307456D01*
X709155Y309456D01*
G37*
G54D34*
G36*
X693184Y315485D02*
X693184Y307985D01*
X691184Y307985D01*
X691184Y315485D01*
X693184Y315485D01*
G37*
G36*
X692184Y314485D02*
X684684Y314485D01*
X684684Y316485D01*
X692184Y316485D01*
X692184Y314485D01*
G37*
G36*
X691184Y315485D02*
X691184Y322985D01*
X693184Y322985D01*
X693184Y315485D01*
X691184Y315485D01*
G37*
G36*
X692184Y316485D02*
X699684Y316485D01*
X699684Y314485D01*
X692184Y314485D01*
X692184Y316485D01*
G37*
G54D33*
G36*
X720278Y699962D02*
X720278Y663462D01*
X698945Y663462D01*
X698945Y699962D01*
X720278Y699962D01*
G37*
G36*
X709612Y689295D02*
X673112Y689295D01*
X673112Y710629D01*
X709612Y710629D01*
X709612Y689295D01*
G37*
G36*
X709612Y710629D02*
X746112Y710629D01*
X746112Y689295D01*
X709612Y689295D01*
X709612Y710629D01*
G37*
G54D34*
G36*
X686611Y699962D02*
X686611Y692462D01*
X684611Y692462D01*
X684611Y699962D01*
X686611Y699962D01*
G37*
G36*
X685611Y698962D02*
X678111Y698962D01*
X678111Y700962D01*
X685611Y700962D01*
X685611Y698962D01*
G37*
G36*
X684611Y699962D02*
X684611Y707462D01*
X686611Y707462D01*
X686611Y699962D01*
X684611Y699962D01*
G37*
G36*
X685611Y700962D02*
X693111Y700962D01*
X693111Y698962D01*
X685611Y698962D01*
X685611Y700962D01*
G37*
G54D34*
G36*
X693640Y716933D02*
X693640Y709433D01*
X691640Y709433D01*
X691640Y716933D01*
X693640Y716933D01*
G37*
G36*
X692640Y715933D02*
X685140Y715933D01*
X685140Y717933D01*
X692640Y717933D01*
X692640Y715933D01*
G37*
G36*
X691640Y716933D02*
X691640Y724433D01*
X693640Y724433D01*
X693640Y716933D01*
X691640Y716933D01*
G37*
G36*
X692640Y717933D02*
X700140Y717933D01*
X700140Y715933D01*
X692640Y715933D01*
X692640Y717933D01*
G37*
G54D34*
G36*
X710611Y723962D02*
X710611Y716462D01*
X708611Y716462D01*
X708611Y723962D01*
X710611Y723962D01*
G37*
G36*
X709611Y722962D02*
X702111Y722962D01*
X702111Y724962D01*
X709611Y724962D01*
X709611Y722962D01*
G37*
G36*
X708611Y723962D02*
X708611Y731462D01*
X710611Y731462D01*
X710611Y723962D01*
X708611Y723962D01*
G37*
G36*
X709611Y724962D02*
X717111Y724962D01*
X717111Y722962D01*
X709611Y722962D01*
X709611Y724962D01*
G37*
G54D34*
G36*
X727582Y716933D02*
X727582Y709433D01*
X725582Y709433D01*
X725582Y716933D01*
X727582Y716933D01*
G37*
G36*
X726582Y715933D02*
X719082Y715933D01*
X719082Y717933D01*
X726582Y717933D01*
X726582Y715933D01*
G37*
G36*
X725582Y716933D02*
X725582Y724433D01*
X727582Y724433D01*
X727582Y716933D01*
X725582Y716933D01*
G37*
G36*
X726582Y717933D02*
X734082Y717933D01*
X734082Y715933D01*
X726582Y715933D01*
X726582Y717933D01*
G37*
G54D34*
G36*
X734611Y699962D02*
X734611Y692462D01*
X732611Y692462D01*
X732611Y699962D01*
X734611Y699962D01*
G37*
G36*
X733611Y698962D02*
X726111Y698962D01*
X726111Y700962D01*
X733611Y700962D01*
X733611Y698962D01*
G37*
G36*
X732611Y699962D02*
X732611Y707462D01*
X734611Y707462D01*
X734611Y699962D01*
X732611Y699962D01*
G37*
G36*
X733611Y700962D02*
X741111Y700962D01*
X741111Y698962D01*
X733611Y698962D01*
X733611Y700962D01*
G37*
G54D34*
G36*
X727582Y682991D02*
X727582Y675491D01*
X725582Y675491D01*
X725582Y682991D01*
X727582Y682991D01*
G37*
G36*
X726582Y681991D02*
X719082Y681991D01*
X719082Y683991D01*
X726582Y683991D01*
X726582Y681991D01*
G37*
G36*
X725582Y682991D02*
X725582Y690491D01*
X727582Y690491D01*
X727582Y682991D01*
X725582Y682991D01*
G37*
G36*
X726582Y683991D02*
X734082Y683991D01*
X734082Y681991D01*
X726582Y681991D01*
X726582Y683991D01*
G37*
G54D34*
G36*
X710611Y675962D02*
X710611Y668462D01*
X708611Y668462D01*
X708611Y675962D01*
X710611Y675962D01*
G37*
G36*
X709611Y674962D02*
X702111Y674962D01*
X702111Y676962D01*
X709611Y676962D01*
X709611Y674962D01*
G37*
G36*
X708611Y675962D02*
X708611Y683462D01*
X710611Y683462D01*
X710611Y675962D01*
X708611Y675962D01*
G37*
G36*
X709611Y676962D02*
X717111Y676962D01*
X717111Y674962D01*
X709611Y674962D01*
X709611Y676962D01*
G37*
G54D34*
G36*
X693640Y682991D02*
X693640Y675491D01*
X691640Y675491D01*
X691640Y682991D01*
X693640Y682991D01*
G37*
G36*
X692640Y681991D02*
X685140Y681991D01*
X685140Y683991D01*
X692640Y683991D01*
X692640Y681991D01*
G37*
G36*
X691640Y682991D02*
X691640Y690491D01*
X693640Y690491D01*
X693640Y682991D01*
X691640Y682991D01*
G37*
G36*
X692640Y683991D02*
X700140Y683991D01*
X700140Y681991D01*
X692640Y681991D01*
X692640Y683991D01*
G37*
G54D35*
G36*
X757573Y369433D02*
X743073Y369433D01*
X743073Y385967D01*
X757573Y385967D01*
X757573Y369433D01*
G37*
G36*
X757573Y385967D02*
X772073Y385967D01*
X772073Y369433D01*
X757573Y369433D01*
X757573Y385967D01*
G37*
G54D34*
G36*
X11923Y331662D02*
X11923Y324162D01*
X9923Y324162D01*
X9923Y331662D01*
X11923Y331662D01*
G37*
G36*
X10923Y330662D02*
X3423Y330662D01*
X3423Y332662D01*
X10923Y332662D01*
X10923Y330662D01*
G37*
G36*
X9923Y331662D02*
X9923Y339162D01*
X11923Y339162D01*
X11923Y331662D01*
X9923Y331662D01*
G37*
G36*
X10923Y332662D02*
X18423Y332662D01*
X18423Y330662D01*
X10923Y330662D01*
X10923Y332662D01*
G37*
G54D34*
G36*
X18953Y348633D02*
X18953Y341133D01*
X16953Y341133D01*
X16953Y348633D01*
X18953Y348633D01*
G37*
G36*
X17953Y347633D02*
X10453Y347633D01*
X10453Y349633D01*
X17953Y349633D01*
X17953Y347633D01*
G37*
G36*
X16953Y348633D02*
X16953Y356133D01*
X18953Y356133D01*
X18953Y348633D01*
X16953Y348633D01*
G37*
G36*
X17953Y349633D02*
X25453Y349633D01*
X25453Y347633D01*
X17953Y347633D01*
X17953Y349633D01*
G37*
G54D34*
G36*
X35924Y355662D02*
X35924Y348162D01*
X33924Y348162D01*
X33924Y355662D01*
X35924Y355662D01*
G37*
G36*
X34924Y354662D02*
X27424Y354662D01*
X27424Y356662D01*
X34924Y356662D01*
X34924Y354662D01*
G37*
G36*
X33924Y355662D02*
X33924Y363162D01*
X35924Y363162D01*
X35924Y355662D01*
X33924Y355662D01*
G37*
G36*
X34924Y356662D02*
X42424Y356662D01*
X42424Y354662D01*
X34924Y354662D01*
X34924Y356662D01*
G37*
G54D34*
G36*
X52894Y348633D02*
X52894Y341133D01*
X50894Y341133D01*
X50894Y348633D01*
X52894Y348633D01*
G37*
G36*
X51894Y347633D02*
X44394Y347633D01*
X44394Y349633D01*
X51894Y349633D01*
X51894Y347633D01*
G37*
G36*
X50894Y348633D02*
X50894Y356133D01*
X52894Y356133D01*
X52894Y348633D01*
X50894Y348633D01*
G37*
G36*
X51894Y349633D02*
X59394Y349633D01*
X59394Y347633D01*
X51894Y347633D01*
X51894Y349633D01*
G37*
G54D34*
G36*
X59924Y331662D02*
X59924Y324162D01*
X57924Y324162D01*
X57924Y331662D01*
X59924Y331662D01*
G37*
G36*
X58924Y330662D02*
X51424Y330662D01*
X51424Y332662D01*
X58924Y332662D01*
X58924Y330662D01*
G37*
G36*
X57924Y331662D02*
X57924Y339162D01*
X59924Y339162D01*
X59924Y331662D01*
X57924Y331662D01*
G37*
G36*
X58924Y332662D02*
X66424Y332662D01*
X66424Y330662D01*
X58924Y330662D01*
X58924Y332662D01*
G37*
G54D34*
G36*
X52894Y314692D02*
X52894Y307192D01*
X50894Y307192D01*
X50894Y314692D01*
X52894Y314692D01*
G37*
G36*
X51894Y313692D02*
X44394Y313692D01*
X44394Y315692D01*
X51894Y315692D01*
X51894Y313692D01*
G37*
G36*
X50894Y314692D02*
X50894Y322192D01*
X52894Y322192D01*
X52894Y314692D01*
X50894Y314692D01*
G37*
G36*
X51894Y315692D02*
X59394Y315692D01*
X59394Y313692D01*
X51894Y313692D01*
X51894Y315692D01*
G37*
G54D34*
G36*
X35924Y307662D02*
X35924Y300162D01*
X33924Y300162D01*
X33924Y307662D01*
X35924Y307662D01*
G37*
G36*
X34924Y306662D02*
X27424Y306662D01*
X27424Y308662D01*
X34924Y308662D01*
X34924Y306662D01*
G37*
G36*
X33924Y307662D02*
X33924Y315162D01*
X35924Y315162D01*
X35924Y307662D01*
X33924Y307662D01*
G37*
G36*
X34924Y308662D02*
X42424Y308662D01*
X42424Y306662D01*
X34924Y306662D01*
X34924Y308662D01*
G37*
G54D34*
G36*
X18953Y314692D02*
X18953Y307192D01*
X16953Y307192D01*
X16953Y314692D01*
X18953Y314692D01*
G37*
G36*
X17953Y313692D02*
X10453Y313692D01*
X10453Y315692D01*
X17953Y315692D01*
X17953Y313692D01*
G37*
G36*
X16953Y314692D02*
X16953Y322192D01*
X18953Y322192D01*
X18953Y314692D01*
X16953Y314692D01*
G37*
G36*
X17953Y315692D02*
X25453Y315692D01*
X25453Y313692D01*
X17953Y313692D01*
X17953Y315692D01*
G37*
G54D34*
G36*
X10336Y699962D02*
X10336Y692462D01*
X8336Y692462D01*
X8336Y699962D01*
X10336Y699962D01*
G37*
G36*
X9336Y698962D02*
X1836Y698962D01*
X1836Y700962D01*
X9336Y700962D01*
X9336Y698962D01*
G37*
G36*
X8336Y699962D02*
X8336Y707462D01*
X10336Y707462D01*
X10336Y699962D01*
X8336Y699962D01*
G37*
G36*
X9336Y700962D02*
X16836Y700962D01*
X16836Y698962D01*
X9336Y698962D01*
X9336Y700962D01*
G37*
G54D34*
G36*
X17366Y716933D02*
X17366Y709433D01*
X15366Y709433D01*
X15366Y716933D01*
X17366Y716933D01*
G37*
G36*
X16366Y715933D02*
X8866Y715933D01*
X8866Y717933D01*
X16366Y717933D01*
X16366Y715933D01*
G37*
G36*
X15366Y716933D02*
X15366Y724433D01*
X17366Y724433D01*
X17366Y716933D01*
X15366Y716933D01*
G37*
G36*
X16366Y717933D02*
X23866Y717933D01*
X23866Y715933D01*
X16366Y715933D01*
X16366Y717933D01*
G37*
G54D34*
G36*
X34336Y723962D02*
X34336Y716462D01*
X32336Y716462D01*
X32336Y723962D01*
X34336Y723962D01*
G37*
G36*
X33336Y722962D02*
X25836Y722962D01*
X25836Y724962D01*
X33336Y724962D01*
X33336Y722962D01*
G37*
G36*
X32336Y723962D02*
X32336Y731462D01*
X34336Y731462D01*
X34336Y723962D01*
X32336Y723962D01*
G37*
G36*
X33336Y724962D02*
X40836Y724962D01*
X40836Y722962D01*
X33336Y722962D01*
X33336Y724962D01*
G37*
G54D34*
G36*
X51306Y716933D02*
X51306Y709433D01*
X49306Y709433D01*
X49306Y716933D01*
X51306Y716933D01*
G37*
G36*
X50306Y715933D02*
X42806Y715933D01*
X42806Y717933D01*
X50306Y717933D01*
X50306Y715933D01*
G37*
G36*
X49306Y716933D02*
X49306Y724433D01*
X51306Y724433D01*
X51306Y716933D01*
X49306Y716933D01*
G37*
G36*
X50306Y717933D02*
X57806Y717933D01*
X57806Y715933D01*
X50306Y715933D01*
X50306Y717933D01*
G37*
G54D34*
G36*
X58336Y699962D02*
X58336Y692462D01*
X56336Y692462D01*
X56336Y699962D01*
X58336Y699962D01*
G37*
G36*
X57336Y698962D02*
X49836Y698962D01*
X49836Y700962D01*
X57336Y700962D01*
X57336Y698962D01*
G37*
G36*
X56336Y699962D02*
X56336Y707462D01*
X58336Y707462D01*
X58336Y699962D01*
X56336Y699962D01*
G37*
G36*
X57336Y700962D02*
X64836Y700962D01*
X64836Y698962D01*
X57336Y698962D01*
X57336Y700962D01*
G37*
G54D34*
G36*
X51306Y682992D02*
X51306Y675492D01*
X49306Y675492D01*
X49306Y682992D01*
X51306Y682992D01*
G37*
G36*
X50306Y681992D02*
X42806Y681992D01*
X42806Y683992D01*
X50306Y683992D01*
X50306Y681992D01*
G37*
G36*
X49306Y682992D02*
X49306Y690492D01*
X51306Y690492D01*
X51306Y682992D01*
X49306Y682992D01*
G37*
G36*
X50306Y683992D02*
X57806Y683992D01*
X57806Y681992D01*
X50306Y681992D01*
X50306Y683992D01*
G37*
G54D34*
G36*
X34336Y675962D02*
X34336Y668462D01*
X32336Y668462D01*
X32336Y675962D01*
X34336Y675962D01*
G37*
G36*
X33336Y674962D02*
X25836Y674962D01*
X25836Y676962D01*
X33336Y676962D01*
X33336Y674962D01*
G37*
G36*
X32336Y675962D02*
X32336Y683462D01*
X34336Y683462D01*
X34336Y675962D01*
X32336Y675962D01*
G37*
G36*
X33336Y676962D02*
X40836Y676962D01*
X40836Y674962D01*
X33336Y674962D01*
X33336Y676962D01*
G37*
G54D34*
G36*
X17366Y682992D02*
X17366Y675492D01*
X15366Y675492D01*
X15366Y682992D01*
X17366Y682992D01*
G37*
G36*
X16366Y681992D02*
X8866Y681992D01*
X8866Y683992D01*
X16366Y683992D01*
X16366Y681992D01*
G37*
G36*
X15366Y682992D02*
X15366Y690492D01*
X17366Y690492D01*
X17366Y682992D01*
X15366Y682992D01*
G37*
G36*
X16366Y683992D02*
X23866Y683992D01*
X23866Y681992D01*
X16366Y681992D01*
X16366Y683992D01*
G37*
G54D36*
G36*
X654699Y523688D02*
X654699Y515138D01*
X646599Y515138D01*
X646599Y523688D01*
X654699Y523688D01*
G37*
G36*
X646599Y523688D02*
X646599Y532238D01*
X654699Y532238D01*
X654699Y523688D01*
X646599Y523688D01*
G37*
G54D36*
G36*
X614218Y523688D02*
X614218Y515138D01*
X606118Y515138D01*
X606118Y523688D01*
X614218Y523688D01*
G37*
G36*
X606118Y523688D02*
X606118Y532238D01*
X614218Y532238D01*
X614218Y523688D01*
X606118Y523688D01*
G37*
G54D36*
G36*
X556987Y592826D02*
X565537Y592826D01*
X565537Y584726D01*
X556987Y584726D01*
X556987Y592826D01*
G37*
G36*
X561037Y588776D02*
X561037Y580226D01*
X552937Y580226D01*
X552937Y588776D01*
X561037Y588776D01*
G37*
G36*
X556987Y584726D02*
X548437Y584726D01*
X548437Y592826D01*
X556987Y592826D01*
X556987Y584726D01*
G37*
G36*
X552937Y588776D02*
X552937Y597326D01*
X561037Y597326D01*
X561037Y588776D01*
X552937Y588776D01*
G37*
G54D36*
G36*
X649062Y630132D02*
X657612Y630132D01*
X657612Y622032D01*
X649062Y622032D01*
X649062Y630132D01*
G37*
G36*
X653112Y626082D02*
X653112Y617532D01*
X645012Y617532D01*
X645012Y626082D01*
X653112Y626082D01*
G37*
G36*
X649062Y622032D02*
X640512Y622032D01*
X640512Y630132D01*
X649062Y630132D01*
X649062Y622032D01*
G37*
G36*
X645012Y626082D02*
X645012Y634632D01*
X653112Y634632D01*
X653112Y626082D01*
X645012Y626082D01*
G37*
G54D36*
G36*
X510949Y396769D02*
X519499Y396769D01*
X519499Y388669D01*
X510949Y388669D01*
X510949Y396769D01*
G37*
G36*
X514999Y392719D02*
X514999Y384169D01*
X506899Y384169D01*
X506899Y392719D01*
X514999Y392719D01*
G37*
G36*
X510949Y388669D02*
X502399Y388669D01*
X502399Y396769D01*
X510949Y396769D01*
X510949Y388669D01*
G37*
G36*
X506899Y392719D02*
X506899Y401269D01*
X514999Y401269D01*
X514999Y392719D01*
X506899Y392719D01*
G37*
G54D36*
G36*
X584768Y411057D02*
X593318Y411057D01*
X593318Y402957D01*
X584768Y402957D01*
X584768Y411057D01*
G37*
G36*
X588818Y407007D02*
X588818Y398457D01*
X580718Y398457D01*
X580718Y407007D01*
X588818Y407007D01*
G37*
G36*
X584768Y402957D02*
X576218Y402957D01*
X576218Y411057D01*
X584768Y411057D01*
X584768Y402957D01*
G37*
G36*
X580718Y407007D02*
X580718Y415557D01*
X588818Y415557D01*
X588818Y407007D01*
X580718Y407007D01*
G37*
G36*
X662526Y445918D02*
X662526Y429918D01*
X646526Y429918D01*
X646526Y445918D01*
X662526Y445918D01*
G37*
X629127Y437918D02*
G54D37*
D03*
X603726Y437919D02*
G54D37*
D03*
X578326Y437919D02*
G54D37*
D03*
X552926Y437919D02*
G54D37*
D03*
X527526Y437919D02*
G54D37*
D03*
X630460Y540408D02*
G54D38*
D03*
X620934Y470955D02*
G54D38*
D03*
X562197Y484052D02*
G54D38*
D03*
G54D25*
X620934Y470955D02*
X575294Y470955D01*
X562197Y484052D01*
G54D39*
X630460Y540408D02*
X630460Y462668D01*
X605710Y437919D01*
G54D28*
X505675Y344234D02*
X522675Y344234D01*
G54D28*
X429475Y318834D02*
X446475Y318834D01*
G54D28*
X505675Y318834D02*
X522675Y318834D01*
G54D28*
X429475Y344234D02*
X446475Y344234D01*
G54D28*
X505675Y293434D02*
X522675Y293434D01*
G54D28*
X429475Y191834D02*
X446475Y191834D01*
G54D28*
X505675Y217234D02*
X522675Y217234D01*
G54D28*
X429475Y217234D02*
X446475Y217234D01*
G54D28*
X505675Y191834D02*
X522675Y191834D01*
G54D28*
X429475Y242634D02*
X446475Y242634D01*
X225250Y315659D02*
G54D40*
D03*
X257000Y356934D02*
G54D40*
D03*
X312959Y356934D02*
G54D40*
D03*
X376447Y381780D02*
G54D40*
D03*
X257000Y433134D02*
G54D40*
D03*
X312563Y433134D02*
G54D40*
D03*
X376447Y460361D02*
G54D40*
D03*
X301450Y315659D02*
G54D40*
D03*
G36*
X420975Y301934D02*
X454975Y301934D01*
X454975Y284934D01*
X420975Y284934D01*
X420975Y301934D01*
G37*
G36*
X497175Y251134D02*
X531175Y251134D01*
X531175Y234134D01*
X497175Y234134D01*
X497175Y251134D01*
G37*
X191829Y33906D02*
G54D15*
D03*
X191830Y85907D02*
G54D15*
D03*
G36*
X290199Y213202D02*
X290199Y189202D01*
X266199Y189202D01*
X266199Y213202D01*
X290199Y213202D01*
G37*
X303599Y232952D02*
G54D10*
D03*
X328999Y201202D02*
G54D10*
D03*
X136338Y363901D02*
G54D41*
D03*
X133163Y154351D02*
G54D41*
D03*
X660496Y233410D02*
G54D15*
D03*
X591032Y233411D02*
G54D15*
D03*
X378485Y228298D02*
G54D40*
D03*
X378485Y165598D02*
G54D40*
D03*
X598890Y121450D02*
G54D42*
D03*
X598890Y71450D02*
G54D42*
D03*
X598890Y96450D02*
G54D42*
D03*
X748890Y121450D02*
G54D42*
D03*
X748890Y71450D02*
G54D42*
D03*
X673890Y158950D02*
G54D43*
D03*
X673890Y33950D02*
G54D43*
D03*
X402235Y555825D02*
G54D42*
D03*
X402234Y708224D02*
G54D42*
D03*
X122834Y657425D02*
G54D42*
D03*
X122834Y606625D02*
G54D42*
D03*
G54D44*
X493856Y41222D02*
X513856Y41222D01*
G36*
X483856Y127221D02*
X523856Y127221D01*
X523856Y107221D01*
X483856Y107221D01*
X483856Y127221D01*
G37*
X709155Y332456D02*
G54D45*
D03*
X685154Y332456D02*
G54D46*
D03*
X692184Y349426D02*
G54D46*
D03*
X709155Y356456D02*
G54D46*
D03*
X726125Y349426D02*
G54D46*
D03*
X733154Y332456D02*
G54D46*
D03*
X726125Y315485D02*
G54D46*
D03*
X709155Y308456D02*
G54D46*
D03*
X692184Y315485D02*
G54D46*
D03*
X709612Y699962D02*
G54D45*
D03*
X685611Y699962D02*
G54D46*
D03*
X692640Y716933D02*
G54D46*
D03*
X709611Y723962D02*
G54D46*
D03*
X726582Y716933D02*
G54D46*
D03*
X733611Y699962D02*
G54D46*
D03*
X726582Y682991D02*
G54D46*
D03*
X709611Y675962D02*
G54D46*
D03*
X692640Y682991D02*
G54D46*
D03*
X757573Y352300D02*
G54D42*
D03*
X757573Y377700D02*
G54D42*
D03*
X757573Y403100D02*
G54D42*
D03*
X757573Y428500D02*
G54D42*
D03*
X757573Y453900D02*
G54D42*
D03*
X757573Y479300D02*
G54D42*
D03*
X757573Y504700D02*
G54D42*
D03*
X757573Y530100D02*
G54D42*
D03*
X34924Y331662D02*
G54D45*
D03*
X10923Y331662D02*
G54D46*
D03*
X17953Y348633D02*
G54D46*
D03*
X34924Y355662D02*
G54D46*
D03*
X51894Y348633D02*
G54D46*
D03*
X58924Y331662D02*
G54D46*
D03*
X51894Y314692D02*
G54D46*
D03*
X34924Y307662D02*
G54D46*
D03*
X17953Y314692D02*
G54D46*
D03*
X33336Y699962D02*
G54D45*
D03*
X9336Y699962D02*
G54D46*
D03*
X16366Y716933D02*
G54D46*
D03*
X33336Y723962D02*
G54D46*
D03*
X50306Y716933D02*
G54D46*
D03*
X57336Y699962D02*
G54D46*
D03*
X50306Y682992D02*
G54D46*
D03*
X33336Y675962D02*
G54D46*
D03*
X16366Y682992D02*
G54D46*
D03*
X187464Y433956D02*
G54D15*
D03*
X187464Y485957D02*
G54D15*
D03*
X719534Y580232D02*
G54D38*
D03*
X696515Y595710D02*
G54D38*
D03*
X621506Y597694D02*
G54D38*
D03*
X612775Y610791D02*
G54D38*
D03*
X604837Y597297D02*
G54D38*
D03*
G54D25*
X719534Y580232D02*
X722312Y580232D01*
X736997Y565547D01*
X736997Y513557D01*
X746918Y503635D01*
X759683Y503635D01*
X760748Y504700D01*
G54D25*
X696515Y595710D02*
X696515Y586979D01*
X729059Y554435D01*
X729059Y492919D01*
X743744Y479029D01*
X758889Y479029D01*
X759160Y479300D01*
G54D25*
X612775Y610791D02*
X657622Y610791D01*
X719137Y549276D01*
X719137Y466726D01*
X733822Y452041D01*
X755714Y452041D01*
X757573Y453900D01*
G54D25*
X620712Y597694D02*
X656431Y597694D01*
X710009Y544116D01*
X710009Y448072D01*
X731440Y427435D01*
X755714Y427435D01*
X756779Y428500D01*
G54D25*
X604837Y597297D02*
X604837Y590154D01*
X611187Y583804D01*
X655637Y583804D01*
X699690Y539750D01*
X699690Y444500D01*
X742553Y401638D01*
X756111Y401638D01*
X757573Y403100D01*
X583009Y484585D02*
G54D38*
D03*
X602853Y501254D02*
G54D38*
D03*
G54D25*
X601265Y501254D02*
X596900Y505619D01*
X502444Y505619D01*
X486568Y489744D01*
X486568Y250826D01*
X495300Y242094D01*
X512048Y242094D01*
X512588Y242634D01*
G54D25*
X583009Y484585D02*
X581422Y484585D01*
X570706Y495300D01*
X505618Y495300D01*
X496490Y486172D01*
X496490Y375047D01*
X509190Y362347D01*
X533400Y362347D01*
X541337Y354410D01*
X541337Y323454D01*
X536972Y319088D01*
X514429Y319088D01*
X514175Y318834D01*
G54D25*
X507428Y117221D02*
X507428Y117650D01*
X477837Y147241D01*
X477837Y518319D01*
X514747Y555229D01*
X640556Y554832D01*
X640556Y554832D02*
G54D38*
D03*
X639762Y457200D02*
G54D38*
D03*
X651668Y459185D02*
G54D38*
D03*
X648494Y412750D02*
G54D38*
D03*
X716756Y406797D02*
G54D38*
D03*
X701278Y406400D02*
G54D38*
D03*
X691753Y422672D02*
G54D38*
D03*
X655240Y378619D02*
G54D38*
D03*
X623887Y327422D02*
G54D38*
D03*
X666353Y365522D02*
G54D38*
D03*
G54D25*
X623887Y327422D02*
X657622Y327422D01*
X669925Y339726D01*
X669925Y354410D01*
X717153Y401638D01*
X717153Y406400D01*
X716756Y406797D01*
G54D25*
X666353Y365522D02*
X666353Y371476D01*
X701278Y406400D01*
G54D25*
X651668Y459185D02*
X663972Y459185D01*
X673100Y450850D01*
X673100Y423863D01*
X604044Y354807D01*
X604837Y291307D01*
X564356Y250826D01*
X564356Y142082D01*
X584988Y121450D01*
X598890Y121450D01*
G54D25*
X648494Y412750D02*
X646906Y412750D01*
X594518Y360363D01*
X594518Y296069D01*
X554037Y256382D01*
X554037Y100013D01*
X583406Y70644D01*
X598085Y70644D01*
X598890Y71450D01*
G54D25*
X639762Y457200D02*
X641350Y452438D01*
X641350Y422276D01*
X583406Y363538D01*
X583406Y300832D01*
X543718Y261144D01*
X543718Y76994D01*
X573881Y48419D01*
X630237Y48419D01*
X703262Y121444D01*
X748890Y121450D01*
X650649Y523688D02*
G54D38*
D03*
X610168Y523688D02*
G54D38*
D03*
G54D25*
X655240Y378619D02*
X658812Y378619D01*
X692150Y411957D01*
X692150Y422276D01*
X691753Y422672D01*
X556987Y588776D02*
G54D38*
D03*
X649062Y626082D02*
G54D38*
D03*
X510949Y392719D02*
G54D38*
D03*
X584768Y407007D02*
G54D38*
D03*
X504280Y578100D02*
G54D42*
D03*
X486319Y560139D02*
G54D42*
D03*
M02*
